<?xml version="1.0" encoding="UTF-8" standalone="no"?>
<!-- Uploaded to: SVG Repo, www.svgrepo.com, Generator: SVG Repo Mixer Tools -->

<svg
   height="800px"
   width="800px"
   version="1.1"
   id="Layer_1"
   viewBox="0 0 382 382"
   xml:space="preserve"
   sodipodi:docname="linkedin.svg"
   inkscape:version="1.2.2 (732a01da63, 2022-12-09)"
   xmlns:inkscape="http://www.inkscape.org/namespaces/inkscape"
   xmlns:sodipodi="http://sodipodi.sourceforge.net/DTD/sodipodi-0.dtd"
   xmlns="http://www.w3.org/2000/svg"
   xmlns:svg="http://www.w3.org/2000/svg"><defs
   id="defs21" /><sodipodi:namedview
   id="namedview19"
   pagecolor="#ffffff"
   bordercolor="#000000"
   borderopacity="0.25"
   inkscape:showpageshadow="2"
   inkscape:pageopacity="0.0"
   inkscape:pagecheckerboard="0"
   inkscape:deskcolor="#d1d1d1"
   showgrid="false"
   inkscape:zoom="0.71948115"
   inkscape:cx="558.73597"
   inkscape:cy="451.01946"
   inkscape:window-width="1350"
   inkscape:window-height="1040"
   inkscape:window-x="408"
   inkscape:window-y="38"
   inkscape:window-maximized="0"
   inkscape:current-layer="Layer_1" />
<path
   style="fill:#0077b7;stroke-width:0.739395"
   d="M 306.67474,49.775451 H 75.325259 c -14.110636,0 -25.549808,11.439172 -25.549808,25.549808 V 306.67402 c 0,14.11135 11.439172,25.55053 25.549808,25.55053 H 306.67402 c 14.11135,0 25.55053,-11.43918 25.55053,-25.55053 V 75.325259 c 0,-14.110636 -11.43918,-25.549808 -25.54981,-25.549808 z M 137.1772,293.66064 c 0,4.10662 -3.32876,7.43539 -7.4354,7.43539 H 98.091235 c -4.106569,0 -7.435331,-3.32877 -7.435331,-7.43539 V 160.98275 c 0,-4.10657 3.328762,-7.43533 7.435331,-7.43533 H 129.7418 c 4.10664,0 7.4354,3.32876 7.4354,7.43533 z M 113.91652,141.04055 c -16.606064,0 -30.068258,-13.46219 -30.068258,-30.06826 0,-16.606124 13.462194,-30.068257 30.068258,-30.068257 16.60613,0 30.06826,13.462133 30.06826,30.068257 0,16.60607 -13.46142,30.06826 -30.06826,30.06826 z m 188.66568,153.219 c 0,3.77537 -3.06111,6.83648 -6.83642,6.83648 h -33.96341 c -3.77537,0 -6.83648,-3.06111 -6.83648,-6.83648 v -62.23344 c 0,-9.28387 2.72319,-40.6823 -24.26178,-40.6823 -20.93154,0 -25.17717,21.49127 -26.02965,31.13595 v 71.77979 c 0,3.77537 -3.0604,6.83648 -6.83647,6.83648 h -32.84841 c -3.77536,0 -6.83641,-3.06111 -6.83641,-6.83648 V 160.38389 c 0,-3.77536 3.06105,-6.83647 6.83641,-6.83647 h 32.84841 c 3.77537,0 6.83647,3.06111 6.83647,6.83647 v 11.5752 c 7.76143,-11.64767 19.29596,-20.63802 43.855,-20.63802 54.38403,0 54.07274,50.8083 54.07274,78.72494 z"
   id="path16" />
</svg>
