<?xml version="1.0" encoding="UTF-8" standalone="no"?>
<!-- Uploaded to: SVG Repo, www.svgrepo.com, Transformed by: SVG Repo Mixer Tools -->

<svg
   width="800px"
   height="800px"
   viewBox="0 0 24 24"
   fill="none"
   version="1.1"
   id="svg330"
   sodipodi:docname="location.svg"
   inkscape:version="1.2.2 (732a01da63, 2022-12-09)"
   xmlns:inkscape="http://www.inkscape.org/namespaces/inkscape"
   xmlns:sodipodi="http://sodipodi.sourceforge.net/DTD/sodipodi-0.dtd"
   xmlns="http://www.w3.org/2000/svg"
   xmlns:svg="http://www.w3.org/2000/svg">
  <defs
     id="defs334" />
  <sodipodi:namedview
     id="namedview332"
     pagecolor="#ffffff"
     bordercolor="#000000"
     borderopacity="0.25"
     inkscape:showpageshadow="2"
     inkscape:pageopacity="0.0"
     inkscape:pagecheckerboard="0"
     inkscape:deskcolor="#d1d1d1"
     showgrid="false"
     inkscape:zoom="1.4796209"
     inkscape:cx="435.92246"
     inkscape:cy="625.83597"
     inkscape:window-width="1920"
     inkscape:window-height="1017"
     inkscape:window-x="-8"
     inkscape:window-y="-8"
     inkscape:window-maximized="1"
     inkscape:current-layer="svg330" />
  <g
     id="SVGRepo_bgCarrier"
     stroke-width="0" />
  <g
     id="SVGRepo_tracerCarrier"
     stroke-linecap="round"
     stroke-linejoin="round" />
  <g
     id="SVGRepo_iconCarrier"
     transform="translate(0,0.96)">
    <path
       fill-rule="evenodd"
       clip-rule="evenodd"
       d="m 12,6 c -2.20914,0 -4,1.79086 -4,4 0,2.2091 1.79086,4 4,4 2.2091,0 4,-1.7909 4,-4 0,-2.20914 -1.7909,-4 -4,-4 z m 0,2 c -1.1046,0 -2,0.89543 -2,2 0,1.1046 0.8954,2 2,2 1.1046,0 2,-0.8954 2,-2 0,-1.10457 -0.8954,-2 -2,-2 z"
       fill="#323232"
       id="path325" />
    <path
       fill-rule="evenodd"
       clip-rule="evenodd"
       d="m 11.0901,22.5958 c 0.1158,0.0795 0.208,0.1408 0.2725,0.183 l 0.1061,0.0684 c 0.3246,0.2032 0.7374,0.2036 1.062,4e-4 l 0.1068,-0.0688 c 0.0644,-0.0422 0.1566,-0.1035 0.2724,-0.183 0.2316,-0.1591 0.5586,-0.3917 0.9492,-0.6917 0.7795,-0.5987 1.821,-1.4719 2.8656,-2.5705 C 18.7857,17.1661 21,13.9725 21,10.1818 21,7.75381 20.0571,5.42084 18.3719,3.69728 16.6859,1.97296 14.3943,1 12,1 9.60571,1 7.31415,1.97296 5.62814,3.69728 3.94288,5.42084 3,7.75381 3,10.1818 c 0,3.7907 2.21434,6.9843 4.27531,9.1518 1.04462,1.0986 2.08605,1.9718 2.86559,2.5705 0.3906,0.3 0.7176,0.5326 0.9492,0.6917 z M 12,3 C 10.1508,3 8.37273,3.75107 7.05815,5.09552 5.74283,6.44073 5,8.26992 5,10.1818 c 0,3.0189 1.78566,5.7344 3.72469,7.7736 0.95538,1.0048 1.91391,1.8092 2.63441,2.3625 0.2455,0.1886 0.4624,0.3472 0.6409,0.4739 0.1785,-0.1267 0.3954,-0.2853 0.6409,-0.4739 0.7205,-0.5533 1.679,-1.3577 2.6344,-2.3625 C 17.2143,15.9162 19,13.2007 19,10.1818 19,8.26992 18.2572,6.44073 16.9418,5.09552 15.6273,3.75107 13.8492,3 12,3 Z"
       fill="#323232"
       id="path327" />
  </g>
</svg>
