<?xml version="1.0" encoding="UTF-8" standalone="no"?>
<!-- Uploaded to: SVG Repo, www.svgrepo.com, Generator: SVG Repo Mixer Tools -->

<svg
   width="800px"
   height="800px"
   viewBox="0 0 24 24"
   fill="none"
   version="1.1"
   id="svg439"
   sodipodi:docname="phone.svg"
   inkscape:version="1.2.2 (732a01da63, 2022-12-09)"
   xmlns:inkscape="http://www.inkscape.org/namespaces/inkscape"
   xmlns:sodipodi="http://sodipodi.sourceforge.net/DTD/sodipodi-0.dtd"
   xmlns="http://www.w3.org/2000/svg"
   xmlns:svg="http://www.w3.org/2000/svg">
  <defs
     id="defs443" />
  <sodipodi:namedview
     id="namedview441"
     pagecolor="#ffffff"
     bordercolor="#000000"
     borderopacity="0.25"
     inkscape:showpageshadow="2"
     inkscape:pageopacity="0.0"
     inkscape:pagecheckerboard="0"
     inkscape:deskcolor="#d1d1d1"
     showgrid="false"
     inkscape:zoom="1.04625"
     inkscape:cx="400.4779"
     inkscape:cy="570.13142"
     inkscape:window-width="1350"
     inkscape:window-height="1040"
     inkscape:window-x="544"
     inkscape:window-y="16"
     inkscape:window-maximized="0"
     inkscape:current-layer="svg439" />
  <path
     d="m 2.97,8.48 c 0,8.0081 6.49187,14.5 14.5,14.5 0.666,0 1.3216,-0.0449 1.9637,-0.1318 0.911,-0.1234 1.5363,-0.939 1.5363,-1.8582 v -2.5685 c 0,-0.8608 -0.5509,-1.6251 -1.3675,-1.8973 l -3.1484,-1.0495 c -0.8005,-0.2668 -1.6589,0.2043 -1.8635,1.023 -0.2731,1.0925 -1.6336,1.4693 -2.4299,0.673 L 8.77926,13.7893 C 7.98301,12.993 8.35984,11.63254 9.45229,11.35943 10.271,11.15476 10.7421,10.29644 10.4753,9.49586 L 9.42585,6.34754 C 9.15362,5.53086 8.38934,4.98 7.52848,4.98 H 4.96004 C 4.0408,4.98 3.22518,5.60533 3.10185,6.51627 3.0149,7.15845 2.97,7.81398 2.97,8.48 Z"
     stroke="#323232"
     stroke-width="2"
     stroke-linejoin="round"
     id="path437" />
</svg>
