<?xml version="1.0" encoding="UTF-8" standalone="no"?>
<!-- Uploaded to: SVG Repo, www.svgrepo.com, Transformed by: SVG Repo Mixer Tools -->

<svg
   version="1.1"
   id="_x32_"
   viewBox="0 0 162.56 163.84"
   xml:space="preserve"
   width="254"
   height="256"
   fill="#767676"
   stroke="#767676"
   sodipodi:docname="web-page.svg"
   inkscape:version="1.2.2 (732a01da63, 2022-12-09)"
   xmlns:inkscape="http://www.inkscape.org/namespaces/inkscape"
   xmlns:sodipodi="http://sodipodi.sourceforge.net/DTD/sodipodi-0.dtd"
   xmlns="http://www.w3.org/2000/svg"
   xmlns:svg="http://www.w3.org/2000/svg"><defs
   id="defs330" /><sodipodi:namedview
   id="namedview328"
   pagecolor="#ffffff"
   bordercolor="#000000"
   borderopacity="0.25"
   inkscape:showpageshadow="2"
   inkscape:pageopacity="0.0"
   inkscape:pagecheckerboard="0"
   inkscape:deskcolor="#d1d1d1"
   showgrid="false"
   inkscape:zoom="2.0925"
   inkscape:cx="64.516129"
   inkscape:cy="97.013142"
   inkscape:window-width="1920"
   inkscape:window-height="1017"
   inkscape:window-x="-8"
   inkscape:window-y="-8"
   inkscape:window-maximized="1"
   inkscape:current-layer="_x32_" />

<g
   id="SVGRepo_bgCarrier"
   stroke-width="0" />

<g
   id="SVGRepo_tracerCarrier"
   stroke-linecap="round"
   stroke-linejoin="round" />

<g
   id="SVGRepo_iconCarrier"
   transform="matrix(0.31703566,0,0,0.31703566,0.2588718,0.9720557)"> <style
   type="text/css"
   id="style316"> .st0{fill:#767676;} </style> <g
   id="g324"> <path
   class="st0"
   d="M 486.504,25.496 H 25.496 C 11.438,25.496 0,36.934 0,50.992 v 410.016 c 0,14.059 11.438,25.496 25.496,25.496 h 461.008 c 14.058,0 25.496,-11.437 25.496,-25.496 V 50.992 C 512,36.934 500.562,25.496 486.504,25.496 Z m -61.919,51.512 c 15.806,0 28.618,12.813 28.618,28.618 0,15.806 -12.812,28.618 -28.618,28.618 -15.805,0 -28.618,-12.812 -28.618,-28.618 0.001,-15.805 12.813,-28.618 28.618,-28.618 z m -90.536,0 c 15.805,0 28.618,12.813 28.618,28.618 0,15.806 -12.813,28.618 -28.618,28.618 -15.805,0 -28.618,-12.812 -28.618,-28.618 0,-15.805 12.813,-28.618 28.618,-28.618 z m -90.537,0 c 15.806,0 28.618,12.813 28.618,28.618 0,15.806 -12.812,28.618 -28.618,28.618 -15.805,0 -28.618,-12.812 -28.618,-28.618 0,-15.805 12.813,-28.618 28.618,-28.618 z m 225.821,366.83 H 42.667 V 174.829 h 426.666 z"
   id="path318" /> <rect
   x="87.415001"
   y="219.756"
   class="st0"
   width="226.341"
   height="45.610001"
   id="rect320" /> <rect
   x="87.415001"
   y="311.33301"
   class="st0"
   width="337.17001"
   height="45.610001"
   id="rect322" /> </g> </g>

</svg>
