<?xml version="1.0" encoding="UTF-8" standalone="no"?>
<svg
   width="px"
   height="px"
   viewBox="0 0 400 400"
   version="1.1"
   id="svg190"
   sodipodi:docname="bootstrap.svg"
   inkscape:version="1.2.2 (732a01da63, 2022-12-09)"
   xmlns:inkscape="http://www.inkscape.org/namespaces/inkscape"
   xmlns:sodipodi="http://sodipodi.sourceforge.net/DTD/sodipodi-0.dtd"
   xmlns="http://www.w3.org/2000/svg"
   xmlns:svg="http://www.w3.org/2000/svg">
  <defs
     id="defs194" />
  <sodipodi:namedview
     id="namedview192"
     pagecolor="#ffffff"
     bordercolor="#000000"
     borderopacity="0.25"
     inkscape:showpageshadow="2"
     inkscape:pageopacity="0.0"
     inkscape:pagecheckerboard="0"
     inkscape:deskcolor="#d1d1d1"
     showgrid="false"
     inkscape:zoom="1.4796209"
     inkscape:cx="323.73156"
     inkscape:cy="227.76104"
     inkscape:window-width="1920"
     inkscape:window-height="1017"
     inkscape:window-x="-8"
     inkscape:window-y="-8"
     inkscape:window-maximized="1"
     inkscape:current-layer="svg190" />
  <g
     id="surface1"
     transform="matrix(1.1174026,0,0,1.1174026,-23.480512,-23.480512)">
    <path
       style="fill:#543a7a;fill-opacity:1;fill-rule:nonzero;stroke:none"
       d="m 21.542969,332.4375 c 0,25.41797 20.605469,46.01953 46.019531,46.01953 h 264.875 c 25.41797,0 46.01953,-20.60547 46.01953,-46.01953 V 67.5625 c 0,-25.417969 -20.60547,-46.019531 -46.01953,-46.019531 H 67.5625 c -25.417969,0 -46.019531,20.605469 -46.019531,46.019531 z m 0,0"
       id="path185" />
    <path
       style="fill:#ffffff;fill-opacity:1;fill-rule:nonzero;stroke:none"
       d="M 169.54687,179.41797 V 128.875 h 44.49219 c 4.23828,0 8.32422,0.35156 12.25781,1.05859 3.9336,0.70703 7.41407,1.96875 10.44141,3.78516 3.02734,1.81641 5.44922,4.33594 7.26563,7.56641 1.8125,3.22656 2.72265,7.36328 2.72265,12.40625 0,9.08203 -2.72265,15.64062 -8.17187,19.67578 -5.44922,4.03515 -12.41016,6.05078 -20.88282,6.05078 z M 122.03125,91.949219 V 308.05078 H 226.75 c 9.6875,0 19.11719,-1.21094 28.30078,-3.63281 9.17969,-2.42188 17.35156,-6.15235 24.51563,-11.19922 7.16015,-5.04297 12.86328,-11.55078 17.09765,-19.51953 4.23828,-7.97266 6.35547,-17.40235 6.35547,-28.30078 0,-13.51953 -3.27734,-25.07032 -9.83594,-34.65235 -6.55859,-9.58593 -16.49218,-16.29297 -29.8125,-20.1289 9.6875,-4.64063 17,-10.59375 21.94532,-17.85547 4.9414,-7.26563 7.41406,-16.34375 7.41406,-27.24219 0,-10.08594 -1.66406,-18.5625 -4.99219,-25.42187 -3.33203,-6.85938 -8.02344,-12.35938 -14.07422,-16.4961 -6.05469,-4.136716 -13.3164,-7.113279 -21.79297,-8.925779 -8.47265,-1.816406 -17.85547,-2.726562 -28.14843,-2.726562 z M 169.54687,271.125 v -59.32031 h 51.75391 c 10.29297,0 18.56641,2.37109 24.82031,7.11328 6.25391,4.73828 9.38282,12.66015 9.38282,23.75781 0,5.64844 -0.96094,10.28906 -2.875,13.92188 -1.91797,3.63281 -4.49219,6.50781 -7.71875,8.625 -3.23047,2.12109 -6.96094,3.63281 -11.19922,4.53906 -4.23828,0.91015 -8.67578,1.36328 -13.31641,1.36328 z m 0,0"
       id="path187" />
  </g>
</svg>
