<?xml version="1.0" encoding="UTF-8"?>
<svg xmlns="http://www.w3.org/2000/svg" xmlns:xlink="http://www.w3.org/1999/xlink" width="px" height="px" viewBox="0 0 400 400" version="1.1">
<g id="surface1">
<path style=" stroke:none;fill-rule:nonzero;fill:rgb(33.72549%,23.921569%,48.627451%);fill-opacity:1;" d="M 21.542969 332.4375 C 21.542969 357.855469 42.148438 378.457031 67.5625 378.457031 L 332.4375 378.457031 C 357.855469 378.457031 378.457031 357.851562 378.457031 332.4375 L 378.457031 67.5625 C 378.457031 42.144531 357.851562 21.542969 332.4375 21.542969 L 67.5625 21.542969 C 42.144531 21.542969 21.542969 42.148438 21.542969 67.5625 Z M 21.542969 332.4375 "/>
<path style=" stroke:none;fill-rule:nonzero;fill:rgb(100%,100%,100%);fill-opacity:1;" d="M 169.546875 179.417969 L 169.546875 128.875 L 214.039062 128.875 C 218.277344 128.875 222.363281 129.226562 226.296875 129.933594 C 230.230469 130.640625 233.710938 131.902344 236.738281 133.71875 C 239.765625 135.535156 242.1875 138.054688 244.003906 141.285156 C 245.816406 144.511719 246.726562 148.648438 246.726562 153.691406 C 246.726562 162.773438 244.003906 169.332031 238.554688 173.367188 C 233.105469 177.402344 226.144531 179.417969 217.671875 179.417969 Z M 122.03125 91.949219 L 122.03125 308.050781 L 226.75 308.050781 C 236.4375 308.050781 245.867188 306.839844 255.050781 304.417969 C 264.230469 301.996094 272.402344 298.265625 279.566406 293.21875 C 286.726562 288.175781 292.429688 281.667969 296.664062 273.699219 C 300.902344 265.726562 303.019531 256.296875 303.019531 245.398438 C 303.019531 231.878906 299.742188 220.328125 293.183594 210.746094 C 286.625 201.160156 276.691406 194.453125 263.371094 190.617188 C 273.058594 185.976562 280.371094 180.023438 285.316406 172.761719 C 290.257812 165.496094 292.730469 156.417969 292.730469 145.519531 C 292.730469 135.433594 291.066406 126.957031 287.738281 120.097656 C 284.40625 113.238281 279.714844 107.738281 273.664062 103.601562 C 267.609375 99.464844 260.347656 96.488281 251.871094 94.675781 C 243.398438 92.859375 234.015625 91.949219 223.722656 91.949219 Z M 169.546875 271.125 L 169.546875 211.804688 L 221.300781 211.804688 C 231.59375 211.804688 239.867188 214.175781 246.121094 218.917969 C 252.375 223.65625 255.503906 231.578125 255.503906 242.675781 C 255.503906 248.324219 254.542969 252.964844 252.628906 256.597656 C 250.710938 260.230469 248.136719 263.105469 244.910156 265.222656 C 241.679688 267.34375 237.949219 268.855469 233.710938 269.761719 C 229.472656 270.671875 225.035156 271.125 220.394531 271.125 Z M 169.546875 271.125 "/>
</g>
</svg>
