<?xml version="1.0" encoding="UTF-8" standalone="no"?>
<svg
   width="px"
   height="px"
   viewBox="0 0 400 400"
   version="1.1"
   id="svg221"
   sodipodi:docname="css-3svg.svg"
   inkscape:version="1.2.2 (732a01da63, 2022-12-09)"
   xmlns:inkscape="http://www.inkscape.org/namespaces/inkscape"
   xmlns:sodipodi="http://sodipodi.sourceforge.net/DTD/sodipodi-0.dtd"
   xmlns="http://www.w3.org/2000/svg"
   xmlns:svg="http://www.w3.org/2000/svg">
  <defs
     id="defs225" />
  <sodipodi:namedview
     id="namedview223"
     pagecolor="#ffffff"
     bordercolor="#000000"
     borderopacity="0.25"
     inkscape:showpageshadow="2"
     inkscape:pageopacity="0.0"
     inkscape:pagecheckerboard="0"
     inkscape:deskcolor="#d1d1d1"
     showgrid="false"
     inkscape:zoom="1.4796209"
     inkscape:cx="112.86675"
     inkscape:cy="170.31389"
     inkscape:window-width="1920"
     inkscape:window-height="1017"
     inkscape:window-x="-8"
     inkscape:window-y="-8"
     inkscape:window-maximized="1"
     inkscape:current-layer="svg221" />
  <g
     id="surface1"
     transform="matrix(1.1351698,0,0,1.1351698,-27.033951,-27.033951)">
    <path
       style="fill:#1470b5;fill-opacity:1;fill-rule:nonzero;stroke:none"
       d="M 73.773438,340.01172 45.699219,25 H 354.30078 L 326.1875,339.96094 199.8125,375 Z m 0,0"
       id="path206" />
    <path
       style="fill:#33a8dc;fill-opacity:1;fill-rule:nonzero;stroke:none"
       d="M 200,348.22656 302.125,319.91406 326.14844,50.761719 H 200 Z m 0,0"
       id="path208" />
    <path
       style="fill:#ffffff;fill-opacity:1;fill-rule:nonzero;stroke:none"
       d="m 200,164.88672 h 51.125 l 3.52344,-39.5625 H 200 V 86.6875 h 96.875 l -0.92578,10.363281 -9.48828,106.472659 H 200 Z m 0,0"
       id="path210" />
    <path
       style="fill:#ebebeb;fill-opacity:1;fill-rule:nonzero;stroke:none"
       d="m 200.23828,265.22656 -0.17578,0.0469 -43.02344,-11.625 -2.75,-30.8125 H 115.5 l 5.41406,60.66406 79.13672,21.97656 0.1875,-0.0508 z m 0,0"
       id="path212" />
    <path
       style="fill:#ffffff;fill-opacity:1;fill-rule:nonzero;stroke:none"
       d="M 247.83594,201.88672 243.1875,253.625 200.10156,265.25 v 40.19922 L 279.30078,283.5 l 0.58594,-6.52344 6.71484,-75.08984 z m 0,0"
       id="path214" />
    <path
       style="fill:#ebebeb;fill-opacity:1;fill-rule:nonzero;stroke:none"
       d="m 200.13672,86.6875 v 38.63672 H 106.8125 l -0.77344,-8.6875 -1.76562,-19.585939 -0.92188,-10.363281 z m 0,0"
       id="path216" />
    <path
       style="fill:#ebebeb;fill-opacity:1;fill-rule:nonzero;stroke:none"
       d="m 200,164.88672 v 38.63672 h -42.48828 l -0.77344,-8.6875 -1.75,-19.58594 -0.92578,-10.36328 z m 0,0"
       id="path218" />
  </g>
</svg>
