<?xml version="1.0" encoding="UTF-8"?>
<svg xmlns="http://www.w3.org/2000/svg" xmlns:xlink="http://www.w3.org/1999/xlink" width="px" height="px" viewBox="0 0 400 400" version="1.1">
<g id="surface1">
<path style=" stroke:none;fill-rule:nonzero;fill:rgb(8.235294%,44.705882%,71.372549%);fill-opacity:1;" d="M 73.773438 340.011719 L 45.699219 25 L 354.300781 25 L 326.1875 339.960938 L 199.8125 375 Z M 73.773438 340.011719 "/>
<path style=" stroke:none;fill-rule:nonzero;fill:rgb(20%,66.27451%,86.27451%);fill-opacity:1;" d="M 200 348.226562 L 302.125 319.914062 L 326.148438 50.761719 L 200 50.761719 Z M 200 348.226562 "/>
<path style=" stroke:none;fill-rule:nonzero;fill:rgb(100%,100%,100%);fill-opacity:1;" d="M 200 164.886719 L 251.125 164.886719 L 254.648438 125.324219 L 200 125.324219 L 200 86.6875 L 296.875 86.6875 L 295.949219 97.050781 L 286.460938 203.523438 L 200 203.523438 Z M 200 164.886719 "/>
<path style=" stroke:none;fill-rule:nonzero;fill:rgb(92.156863%,92.156863%,92.156863%);fill-opacity:1;" d="M 200.238281 265.226562 L 200.0625 265.273438 L 157.039062 253.648438 L 154.289062 222.835938 L 115.5 222.835938 L 120.914062 283.5 L 200.050781 305.476562 L 200.238281 305.425781 Z M 200.238281 265.226562 "/>
<path style=" stroke:none;fill-rule:nonzero;fill:rgb(100%,100%,100%);fill-opacity:1;" d="M 247.835938 201.886719 L 243.1875 253.625 L 200.101562 265.25 L 200.101562 305.449219 L 279.300781 283.5 L 279.886719 276.976562 L 286.601562 201.886719 Z M 247.835938 201.886719 "/>
<path style=" stroke:none;fill-rule:nonzero;fill:rgb(92.156863%,92.156863%,92.156863%);fill-opacity:1;" d="M 200.136719 86.6875 L 200.136719 125.324219 L 106.8125 125.324219 L 106.039062 116.636719 L 104.273438 97.050781 L 103.351562 86.6875 Z M 200.136719 86.6875 "/>
<path style=" stroke:none;fill-rule:nonzero;fill:rgb(92.156863%,92.156863%,92.156863%);fill-opacity:1;" d="M 200 164.886719 L 200 203.523438 L 157.511719 203.523438 L 156.738281 194.835938 L 154.988281 175.25 L 154.0625 164.886719 Z M 200 164.886719 "/>
</g>
</svg>
