<?xml version="1.0" encoding="UTF-8"?>
<svg xmlns="http://www.w3.org/2000/svg" xmlns:xlink="http://www.w3.org/1999/xlink" width="px" height="px" viewBox="0 0 400 400" version="1.1">
<g id="surface1">
<path style=" stroke:none;fill-rule:nonzero;fill:rgb(93.333333%,31.764706%,23.137255%);fill-opacity:1;" d="M 10.335938 219.980469 C -0.699219 208.945312 -0.699219 191.054688 10.335938 180.019531 L 180.019531 10.335938 C 191.054688 -0.699219 208.945312 -0.699219 219.980469 10.335938 L 389.664062 180.019531 C 400.699219 191.054688 400.699219 208.945312 389.664062 219.980469 L 219.980469 389.664062 C 208.945312 400.699219 191.054688 400.699219 180.019531 389.664062 Z M 10.335938 219.980469 "/>
<path style=" stroke:none;fill-rule:nonzero;fill:rgb(100%,100%,100%);fill-opacity:1;" d="M 145.550781 45.347656 L 128.367188 62.53125 L 172.75 106.910156 C 170.953125 110.761719 169.949219 115.054688 169.949219 119.585938 C 169.949219 132.445312 178.03125 143.417969 189.390625 147.703125 L 189.390625 256.269531 C 178.03125 260.554688 169.949219 271.527344 169.949219 284.386719 C 169.949219 300.980469 183.402344 314.429688 199.996094 314.429688 C 216.585938 314.429688 230.039062 300.980469 230.039062 284.386719 C 230.039062 272.726562 223.398438 262.621094 213.691406 257.640625 L 213.691406 147.851562 L 256.113281 190.277344 C 254.40625 194.050781 253.457031 198.238281 253.457031 202.648438 C 253.457031 219.242188 266.90625 232.695312 283.5 232.695312 C 300.09375 232.695312 313.546875 219.242188 313.546875 202.648438 C 313.546875 186.054688 300.09375 172.605469 283.5 172.605469 C 280.277344 172.605469 277.171875 173.113281 274.257812 174.054688 L 228.695312 128.492188 C 229.570312 125.679688 230.039062 122.6875 230.039062 119.585938 C 230.039062 102.992188 216.585938 89.542969 199.996094 89.542969 C 196.894531 89.542969 193.902344 90.011719 191.089844 90.882812 Z M 145.550781 45.347656 "/>
</g>
</svg>
