<?xml version="1.0" encoding="UTF-8"?>
<svg xmlns="http://www.w3.org/2000/svg" xmlns:xlink="http://www.w3.org/1999/xlink" width="px" height="px" viewBox="0 0 400 400" version="1.1">
<g id="surface1">
<path style=" stroke:none;fill-rule:nonzero;fill:rgb(0%,0%,0%);fill-opacity:1;" d="M 200 33.332031 C 118.007812 33.023438 47.96875 92.398438 34.851562 173.339844 C 21.734375 254.277344 69.4375 332.730469 147.332031 358.332031 C 155.667969 359.667969 158.332031 354.5 158.332031 350 L 158.332031 321.832031 C 112.167969 331.832031 102.332031 300 102.332031 300 C 99.222656 289.648438 92.472656 280.769531 83.332031 275 C 68.167969 264.667969 84.5 265 84.5 265 C 95.097656 266.371094 104.492188 272.507812 110 281.667969 C 119.636719 298.800781 141.277344 304.972656 158.5 295.5 C 159.257812 287.050781 162.976562 279.140625 169 273.167969 C 133.332031 269.5 93.667969 255.167969 93.667969 191.667969 C 93.183594 175.023438 99.15625 158.839844 110.332031 146.5 C 105.257812 132.15625 105.855469 116.417969 112 102.5 C 112 102.5 126 98 157.832031 119.167969 C 185.125 111.828125 213.875 111.828125 241.167969 119.167969 C 273 97.667969 287 102.5 287 102.5 C 293.144531 116.417969 293.742188 132.15625 288.667969 146.5 C 299.84375 158.839844 305.816406 175.023438 305.332031 191.667969 C 305.332031 255.332031 266.332031 269.332031 229.167969 273.5 C 237.265625 281.640625 241.457031 292.878906 240.667969 304.332031 L 240.667969 350 C 240.667969 354.5 243.332031 359.832031 251.832031 358.332031 C 329.578125 332.78125 377.265625 254.566406 364.378906 173.75 C 351.488281 92.9375 281.835938 33.433594 200 33.332031 Z M 200 33.332031 "/>
</g>
</svg>
