<?xml version="1.0" encoding="UTF-8"?>
<svg xmlns="http://www.w3.org/2000/svg" xmlns:xlink="http://www.w3.org/1999/xlink" width="px" height="px" viewBox="0 0 400 400" version="1.1">
<g id="surface1">
<rect x="0" y="0" width="400" height="400" style="fill:rgb(96.862745%,87.45098%,11.764706%);fill-opacity:1;stroke:none;"/>
<path style=" stroke:none;fill-rule:nonzero;fill:rgb(0%,0%,0%);fill-opacity:1;" d="M 105.175781 334.269531 L 135.785156 315.742188 C 141.691406 326.214844 147.0625 335.074219 159.949219 335.074219 C 172.300781 335.074219 180.085938 330.242188 180.085938 311.449219 L 180.085938 183.640625 L 217.675781 183.640625 L 217.675781 311.980469 C 217.675781 350.914062 194.855469 368.632812 161.558594 368.632812 C 131.488281 368.632812 114.035156 353.058594 105.175781 334.265625 "/>
<path style=" stroke:none;fill-rule:nonzero;fill:rgb(0%,0%,0%);fill-opacity:1;" d="M 238.09375 330.242188 L 268.703125 312.519531 C 276.757812 325.679688 287.230469 335.34375 305.757812 335.34375 C 321.332031 335.34375 331.265625 327.554688 331.265625 316.816406 C 331.265625 303.925781 321.0625 299.363281 303.875 291.847656 L 294.480469 287.816406 C 267.359375 276.273438 249.371094 261.773438 249.371094 231.164062 C 249.371094 202.972656 270.851562 181.488281 304.414062 181.488281 C 328.3125 181.488281 345.496094 189.8125 357.847656 211.5625 L 328.578125 230.359375 C 322.132812 218.8125 315.15625 214.25 304.414062 214.25 C 293.40625 214.25 286.425781 221.230469 286.425781 230.359375 C 286.425781 241.636719 293.40625 246.199219 309.515625 253.183594 L 318.914062 257.210938 C 350.863281 270.902344 368.855469 284.863281 368.855469 316.277344 C 368.855469 350.113281 342.273438 368.636719 306.5625 368.636719 C 271.65625 368.636719 249.101562 351.992188 238.097656 330.242188 "/>
</g>
</svg>
