<?xml version="1.0" encoding="UTF-8"?>
<svg xmlns="http://www.w3.org/2000/svg" xmlns:xlink="http://www.w3.org/1999/xlink" width="px" height="px" viewBox="0 0 400 400" version="1.1">
<g id="surface1">
<path style=" stroke:none;fill-rule:nonzero;fill:rgb(90.588235%,43.529412%,0%);fill-opacity:1;" d="M 200.621094 105.507812 C 282.972656 41.574219 240.707031 0 240.707031 0 C 246.996094 66.09375 172.664062 81.699219 152.734375 127.113281 C 139.140625 158.105469 162.046875 185.242188 200.59375 219.441406 C 197.1875 211.867188 191.929688 204.507812 186.609375 197.054688 C 168.460938 171.640625 149.554688 145.164062 200.621094 105.507812 Z M 200.621094 105.507812 "/>
<path style=" stroke:none;fill-rule:nonzero;fill:rgb(90.588235%,43.529412%,0%);fill-opacity:1;" d="M 213.769531 233.460938 C 213.769531 233.460938 238.542969 213.472656 218.921875 191.261719 C 152.414062 115.898438 291.667969 81.699219 291.667969 81.699219 C 206.644531 122.65625 219.339844 146.96875 240.707031 176.503906 C 263.589844 208.171875 213.769531 233.460938 213.769531 233.460938 Z M 213.769531 233.460938 "/>
<path style=" stroke:none;fill-rule:nonzero;fill:rgb(32.54902%,50.980392%,63.137255%);fill-opacity:1;" d="M 286.710938 293.070312 C 363.027344 254.074219 327.742188 216.597656 303.113281 221.644531 C 297.078125 222.882812 294.386719 223.953125 294.386719 223.953125 C 294.386719 223.953125 296.628906 220.5 300.90625 219.003906 C 349.632812 202.160156 387.101562 268.6875 285.179688 295.035156 C 285.179688 295.035156 286.359375 293.996094 286.710938 293.070312 Z M 286.710938 293.070312 "/>
<path style=" stroke:none;fill-rule:nonzero;fill:rgb(32.54902%,50.980392%,63.137255%);fill-opacity:1;" d="M 127.914062 243.710938 C 80.164062 237.441406 154.09375 220.171875 154.09375 220.171875 C 154.09375 220.171875 125.382812 218.269531 90.074219 235.054688 C 48.320312 254.914062 193.351562 263.949219 268.425781 244.53125 C 276.230469 239.289062 287.015625 234.746094 287.015625 234.746094 C 287.015625 234.746094 256.296875 240.140625 225.703125 242.679688 C 188.265625 245.765625 148.074219 246.367188 127.914062 243.710938 Z M 127.914062 243.710938 "/>
<path style=" stroke:none;fill-rule:nonzero;fill:rgb(32.54902%,50.980392%,63.137255%);fill-opacity:1;" d="M 146.078125 280.949219 C 119.453125 278.238281 136.886719 265.546875 136.886719 265.546875 C 67.988281 288.035156 175.222656 313.539062 271.5 285.851562 C 261.265625 282.304688 254.757812 275.816406 254.757812 275.816406 C 207.703125 284.726562 180.511719 284.441406 146.078125 280.949219 Z M 146.078125 280.949219 "/>
<path style=" stroke:none;fill-rule:nonzero;fill:rgb(32.54902%,50.980392%,63.137255%);fill-opacity:1;" d="M 157.679688 321.238281 C 131.074219 318.230469 146.617188 309.34375 146.617188 309.34375 C 84.074219 326.527344 184.660156 362.03125 264.292969 328.472656 C 251.25 323.484375 241.910156 317.726562 241.910156 317.726562 C 206.390625 324.335938 189.914062 324.855469 157.679688 321.238281 Z M 157.679688 321.238281 "/>
<path style=" stroke:none;fill-rule:nonzero;fill:rgb(32.54902%,50.980392%,63.137255%);fill-opacity:1;" d="M 324.234375 341.734375 C 324.234375 341.734375 335.734375 351.054688 311.566406 358.265625 C 265.601562 371.957031 120.261719 376.09375 79.886719 358.8125 C 65.371094 352.601562 92.589844 343.984375 101.152344 342.175781 C 110.082031 340.273438 115.183594 340.628906 115.183594 340.628906 C 99.042969 329.449219 10.855469 362.582031 70.390625 372.074219 C 232.742188 397.964844 366.347656 360.414062 324.234375 341.734375 Z M 324.234375 341.734375 "/>
<path style=" stroke:none;fill-rule:nonzero;fill:rgb(32.54902%,50.980392%,63.137255%);fill-opacity:1;" d="M 350 362.097656 C 347.335938 396.183594 234.847656 403.355469 161.59375 398.742188 C 113.804688 395.730469 104.226562 388.199219 104.085938 388.085938 C 149.824219 395.503906 226.9375 396.851562 289.460938 385.28125 C 344.878906 375.019531 350 362.097656 350 362.097656 Z M 350 362.097656 "/>
</g>
</svg>
