<?xml version="1.0" encoding="UTF-8"?>
<svg xmlns="http://www.w3.org/2000/svg" xmlns:xlink="http://www.w3.org/1999/xlink" width="px" height="px" viewBox="0 0 400 400" version="1.1">
<g id="surface1">
<path style=" stroke:none;fill-rule:nonzero;fill:rgb(4.705882%,3.137255%,14.117647%);fill-opacity:1;" d="M 39.585938 43.960938 L 360.414062 43.960938 L 360.414062 356.039062 L 39.585938 356.039062 Z M 39.585938 43.960938 "/>
<path style=" stroke:none;fill-rule:nonzero;fill:rgb(19.215686%,77.254902%,94.117647%);fill-opacity:1;" d="M 39.585938 43.960938 L 360.414062 43.960938 L 360.414062 356.039062 L 39.585938 356.039062 Z M 25 370.625 L 375 370.625 L 375 29.375 L 25 29.375 Z M 260.960938 169.375 C 249.4375 169.375 245.5 175.210938 245.5 180.023438 C 245.5 185.273438 248.125 188.925781 263.585938 196.9375 C 286.488281 208.023438 293.585938 218.664062 293.585938 234.273438 C 293.585938 257.613281 275.800781 270.148438 251.738281 270.148438 C 241.410156 270.53125 231.148438 268.386719 221.835938 263.898438 C 220.8125 263.460938 220.675781 262.738281 220.675781 261.5625 L 220.675781 240.101562 C 220.675781 238.636719 221.398438 238.199219 222.425781 238.9375 C 231.167969 244.558594 241.34375 247.542969 251.738281 247.539062 C 263.261719 247.539062 268.074219 242.726562 268.074219 236.164062 C 268.074219 230.914062 264.726562 226.25 249.988281 218.664062 C 229.273438 208.75 220.675781 198.664062 220.675781 181.914062 C 220.675781 163.101562 235.398438 147.5 260.925781 147.5 C 269.808594 147.117188 278.683594 148.507812 287.023438 151.585938 C 288.003906 152.222656 288.5625 153.335938 288.488281 154.5 L 288.488281 174.5 C 288.488281 175.664062 287.761719 176.398438 286.300781 175.960938 C 278.589844 171.523438 269.820312 169.257812 260.925781 169.398438 Z M 135.539062 186.726562 C 138.886719 187.011719 141.511719 187.011719 147.351562 187.011719 C 164.414062 187.011719 180.449219 181.039062 180.449219 157.851562 C 180.449219 139.324219 168.925781 130 149.539062 130 C 143.699219 130 138.164062 130.289062 135.539062 130.4375 Z M 109.574219 109.226562 C 109.574219 108.199219 111.613281 107.476562 112.789062 107.476562 C 122.125 107.039062 135.976562 106.75 150.414062 106.75 C 190.8125 106.75 206.5625 128.914062 206.5625 157.210938 C 206.5625 194.25 179.726562 210.148438 146.773438 210.148438 C 141.238281 210.148438 139.335938 209.863281 135.398438 209.863281 L 135.398438 265.863281 C 135.398438 267.023438 134.960938 267.613281 133.648438 267.613281 L 111.335938 267.613281 C 110.175781 267.613281 109.585938 267.175781 109.585938 265.863281 L 109.585938 109.289062 Z M 109.574219 109.226562 "/>
</g>
</svg>
