<?xml version="1.0" encoding="UTF-8" standalone="no"?>
<svg
   width="px"
   height="px"
   viewBox="0 0 400 400"
   version="1.1"
   id="svg252"
   sodipodi:docname="python.svg"
   inkscape:version="1.2.2 (732a01da63, 2022-12-09)"
   xmlns:inkscape="http://www.inkscape.org/namespaces/inkscape"
   xmlns:sodipodi="http://sodipodi.sourceforge.net/DTD/sodipodi-0.dtd"
   xmlns="http://www.w3.org/2000/svg"
   xmlns:svg="http://www.w3.org/2000/svg">
  <sodipodi:namedview
     id="namedview254"
     pagecolor="#ffffff"
     bordercolor="#000000"
     borderopacity="0.25"
     inkscape:showpageshadow="2"
     inkscape:pageopacity="0.0"
     inkscape:pagecheckerboard="0"
     inkscape:deskcolor="#d1d1d1"
     showgrid="false"
     inkscape:zoom="1.4796209"
     inkscape:cx="300.7527"
     inkscape:cy="198.69954"
     inkscape:window-width="1920"
     inkscape:window-height="1017"
     inkscape:window-x="-8"
     inkscape:window-y="-8"
     inkscape:window-maximized="1"
     inkscape:current-layer="svg252" />
  <defs
     id="defs245">
    <linearGradient
       id="linear0"
       gradientUnits="userSpaceOnUse"
       x1="12.4809"
       y1="2"
       x2="12.4809"
       y2="22.7407"
       gradientTransform="scale(12.5)">
      <stop
         offset="0"
         style="stop-color:rgb(19.607843%,49.411765%,74.117647%);stop-opacity:1;"
         id="stop235" />
      <stop
         offset="1"
         style="stop-color:rgb(8.235294%,39.607843%,65.490196%);stop-opacity:1;"
         id="stop237" />
    </linearGradient>
    <linearGradient
       id="linear1"
       gradientUnits="userSpaceOnUse"
       x1="19.519"
       y1="9.25928"
       x2="19.519"
       y2="30"
       gradientTransform="scale(12.5)">
      <stop
         offset="0"
         style="stop-color:rgb(100%,85.490196%,29.411765%);stop-opacity:1;"
         id="stop240" />
      <stop
         offset="1"
         style="stop-color:rgb(97.647059%,77.647059%,0%);stop-opacity:1;"
         id="stop242" />
    </linearGradient>
  </defs>
  <g
     id="surface1"
     transform="matrix(1.1390318,0,0,1.1390318,-27.806078,-27.806349)">
    <path
       style="fill:url(#linear0);fill-rule:evenodd;stroke:none"
       d="m 162.70312,25 c -27.46093,0 -49.72656,21.554688 -49.72656,48.148438 v 33.332032 h 86.06641 v 9.26172 H 74.726562 C 47.261719,115.74219 25,137.29687 25,163.89062 v 72.21875 c 0,26.59375 22.261719,48.14844 49.726562,48.14844 h 28.687498 v -40.73828 c 0,-26.59375 22.26563,-48.14844 49.72656,-48.14844 h 91.80469 c 23.23828,0 42.07422,-18.24218 42.07422,-40.74218 V 73.148438 C 287.01953,46.554688 264.75781,25 237.29687,25 Z m -11.47265,59.257812 c 9.5039,0 17.21094,-7.460937 17.21094,-16.664062 0,-9.207031 -7.70704,-16.667969 -17.21094,-16.667969 -9.50781,0 -17.21485,7.460938 -17.21485,16.667969 0,9.203125 7.70704,16.664062 17.21485,16.664062 z m 0,0"
       id="path247" />
    <path
       style="fill:url(#linear1);fill-rule:evenodd;stroke:none"
       d="m 237.29297,375 c 27.46484,0 49.72656,-21.55469 49.72656,-48.14844 v -33.33203 h -86.06641 v -9.25781 h 124.31641 c 27.46484,0 49.72656,-21.5586 49.72656,-48.15235 v -72.21875 c 0,-26.59375 -22.26172,-48.14843 -49.72656,-48.14843 h -28.6875 v 40.73828 c 0,26.59375 -22.26172,48.14844 -49.72656,48.14844 h -91.80469 c -23.23828,0 -42.07422,18.24218 -42.07422,40.74218 v 81.48047 c 0,26.59375 22.26172,48.14844 49.72656,48.14844 z m 11.47656,-59.25781 c -9.50781,0 -17.21484,7.46093 -17.21484,16.66406 0,9.20703 7.70703,16.66797 17.21484,16.66797 9.50391,0 17.21094,-7.46094 17.21094,-16.66797 0,-9.20313 -7.70703,-16.66406 -17.21094,-16.66406 z m 0,0"
       id="path249" />
  </g>
</svg>
