<?xml version="1.0" encoding="UTF-8"?>
<svg xmlns="http://www.w3.org/2000/svg" xmlns:xlink="http://www.w3.org/1999/xlink" width="px" height="px" viewBox="0 0 400 400" version="1.1">
<defs>
<linearGradient id="linear0" gradientUnits="userSpaceOnUse" x1="12.4809" y1="2" x2="12.4809" y2="22.7407" gradientTransform="matrix(12.5,0,0,12.5,0,0)">
<stop offset="0" style="stop-color:rgb(19.607843%,49.411765%,74.117647%);stop-opacity:1;"/>
<stop offset="1" style="stop-color:rgb(8.235294%,39.607843%,65.490196%);stop-opacity:1;"/>
</linearGradient>
<linearGradient id="linear1" gradientUnits="userSpaceOnUse" x1="19.519" y1="9.25928" x2="19.519" y2="30" gradientTransform="matrix(12.5,0,0,12.5,0,0)">
<stop offset="0" style="stop-color:rgb(100%,85.490196%,29.411765%);stop-opacity:1;"/>
<stop offset="1" style="stop-color:rgb(97.647059%,77.647059%,0%);stop-opacity:1;"/>
</linearGradient>
</defs>
<g id="surface1">
<path style=" stroke:none;fill-rule:evenodd;fill:url(#linear0);" d="M 162.703125 25 C 135.242188 25 112.976562 46.554688 112.976562 73.148438 L 112.976562 106.480469 L 199.042969 106.480469 L 199.042969 115.742188 L 74.726562 115.742188 C 47.261719 115.742188 25 137.296875 25 163.890625 L 25 236.109375 C 25 262.703125 47.261719 284.257812 74.726562 284.257812 L 103.414062 284.257812 L 103.414062 243.519531 C 103.414062 216.925781 125.679688 195.371094 153.140625 195.371094 L 244.945312 195.371094 C 268.183594 195.371094 287.019531 177.128906 287.019531 154.628906 L 287.019531 73.148438 C 287.019531 46.554688 264.757812 25 237.296875 25 Z M 151.230469 84.257812 C 160.734375 84.257812 168.441406 76.796875 168.441406 67.59375 C 168.441406 58.386719 160.734375 50.925781 151.230469 50.925781 C 141.722656 50.925781 134.015625 58.386719 134.015625 67.59375 C 134.015625 76.796875 141.722656 84.257812 151.230469 84.257812 Z M 151.230469 84.257812 "/>
<path style=" stroke:none;fill-rule:evenodd;fill:url(#linear1);" d="M 237.292969 375 C 264.757812 375 287.019531 353.445312 287.019531 326.851562 L 287.019531 293.519531 L 200.953125 293.519531 L 200.953125 284.261719 L 325.269531 284.261719 C 352.734375 284.261719 374.996094 262.703125 374.996094 236.109375 L 374.996094 163.890625 C 374.996094 137.296875 352.734375 115.742188 325.269531 115.742188 L 296.582031 115.742188 L 296.582031 156.480469 C 296.582031 183.074219 274.320312 204.628906 246.855469 204.628906 L 155.050781 204.628906 C 131.8125 204.628906 112.976562 222.871094 112.976562 245.371094 L 112.976562 326.851562 C 112.976562 353.445312 135.238281 375 162.703125 375 Z M 248.769531 315.742188 C 239.261719 315.742188 231.554688 323.203125 231.554688 332.40625 C 231.554688 341.613281 239.261719 349.074219 248.769531 349.074219 C 258.273438 349.074219 265.980469 341.613281 265.980469 332.40625 C 265.980469 323.203125 258.273438 315.742188 248.769531 315.742188 Z M 248.769531 315.742188 "/>
</g>
</svg>
